<?xml version="1.0" encoding="UTF-8" standalone="no"?>
<svg
   xmlns:dc="http://purl.org/dc/elements/1.1/"
   xmlns:cc="http://creativecommons.org/ns#"
   xmlns:rdf="http://www.w3.org/1999/02/22-rdf-syntax-ns#"
   xmlns:svg="http://www.w3.org/2000/svg"
   xmlns="http://www.w3.org/2000/svg"
   xmlns:sodipodi="http://sodipodi.sourceforge.net/DTD/sodipodi-0.dtd"
   xmlns:inkscape="http://www.inkscape.org/namespaces/inkscape"
   width="842.32007"
   viewBox="0 0 842.32007 1000"
   version="1.1"
   height="1000"
   id="svg2"
   inkscape:version="1.0.2 (e86c870879, 2021-01-15)"
   sodipodi:docname="Apple.svg">
  <metadata
     id="metadata10">
    <rdf:RDF>
      <cc:Work
         rdf:about="">
        <dc:format>image/svg+xml</dc:format>
        <dc:type
           rdf:resource="http://purl.org/dc/dcmitype/StillImage" />
        <dc:title />
      </cc:Work>
    </rdf:RDF>
  </metadata>
  <defs
     id="defs8" />
  <sodipodi:namedview
     pagecolor="#ffffff"
     bordercolor="#666666"
     borderopacity="1"
     objecttolerance="10"
     gridtolerance="10"
     guidetolerance="10"
     inkscape:pageopacity="0"
     inkscape:pageshadow="2"
     inkscape:window-width="1366"
     inkscape:window-height="705"
     id="namedview6"
     showgrid="false"
     inkscape:zoom="0.16949021"
     inkscape:cx="-1066.5045"
     inkscape:cy="964.94616"
     inkscape:window-x="-8"
     inkscape:window-y="-8"
     inkscape:window-maximized="1"
     inkscape:current-layer="svg2"
     inkscape:document-rotation="0" />
  <path
     d="m 824.66636,779.30363 c -15.12299,34.93721 -33.02368,67.09671 -53.7638,96.66373 -28.27076,40.30737 -51.4182,68.20778 -69.25717,83.70116 -27.65347,25.43132 -57.2822,38.4556 -89.00964,39.19634 -22.77708,0 -50.24539,-6.48131 -82.21973,-19.629 -32.07926,-13.08611 -61.55985,-19.56734 -88.51583,-19.56734 -28.27075,0 -58.59083,6.48123 -91.02193,19.56734 -32.48053,13.14769 -58.64639,19.99937 -78.65196,20.67836 -30.42501,1.29628 -60.75123,-12.09841 -91.02193,-40.2457 -19.32039,-16.85137 -43.48632,-45.7394 -72.43607,-86.6641 C 77.707522,829.3021 52.171259,778.62463 32.165691,720.84861 10.740416,658.44309 0,598.01282 0,539.50844 0,472.49196 14.481044,414.69124 43.486336,366.25443 66.28194,327.34823 96.60818,296.65779 134.5638,274.1276 c 37.95566,-22.53016 78.96676,-34.01129 123.1321,-34.74586 24.16591,0 55.85633,7.47509 95.23784,22.166 39.27042,14.7403 64.48571,22.21538 75.54091,22.21538 8.26518,0 36.27668,-8.74049 83.7629,-26.16586 44.90607,-16.16001 82.80614,-22.85119 113.85458,-20.21547 84.13326,6.78992 147.34122,39.95559 189.37699,99.70686 -75.24463,45.59122 -112.46573,109.4473 -111.72502,191.36457 0.67899,63.80669 23.82643,116.90384 69.31888,159.06308 20.61664,19.56728 43.64066,34.69028 69.2571,45.43071 -5.55531,16.11061 -11.41933,31.54225 -17.65372,46.35662 z M 631.70926,20.005694 c 0,50.011418 -18.27108,96.706936 -54.6897,139.927816 -43.94932,51.38119 -97.10817,81.07163 -154.75459,76.3866 -0.73454,-5.99983 -1.16045,-12.31444 -1.16045,-18.95004 0,-48.0109 20.9006,-99.39206 58.01678,-141.403131 C 497.65157,54.695996 521.21876,37.009495 549.79815,22.900638 578.3158,9.0022929 605.2903,1.3162091 630.65988,0 c 0.74076,6.6857453 1.04938,13.371912 1.04938,20.005045 z"
     id="path4"
     inkscape:connector-curvature="0"
     style="stroke-width:0.84232" />
</svg>
